<svg width="554" height="570" viewBox="0 0 554 570" fill="none" xmlns="http://www.w3.org/2000/svg">
<rect x="169" y="1" width="207" height="490" fill="white"/>
<rect x="1" y="131" width="552" height="216" fill="white"/>
<path d="M152 180C160.273 185.828 164.831 192.493 168 202C168.819 211.887 167.852 219.306 164.133 228.605C162.173 234.478 161.285 241.284 163.957 247.074C166.447 250.339 169.158 251.844 173 253C176.126 253.302 179.241 253.311 182.38 253.319C183.317 253.329 184.254 253.339 185.22 253.349C188.309 253.38 191.399 253.397 194.488 253.414C196.633 253.433 198.779 253.452 200.924 253.473C206.564 253.524 212.205 253.564 217.845 253.601C224.616 253.648 231.387 253.71 238.157 253.769C248.438 253.857 258.719 253.927 269 254C269 277.76 269 301.52 269 326C265.7 325.34 262.4 324.68 259 324C242.078 322.648 227.756 326.19 214.25 336.813C206.006 344.281 200.555 355.587 199.727 366.652C199.307 379.169 201.434 389.579 209.766 399.414C211 401 211 401 212 404C213.847 405.064 213.847 405.064 216 406C217.343 406.923 218.676 407.862 220 408.813C230.85 416.141 241.114 418.486 254 418C258.95 417.01 263.9 416.02 269 415C269 440.08 269 465.16 269 491C260.459 491.039 260.459 491.039 251.746 491.078C248.132 491.103 244.518 491.13 240.904 491.16C235.172 491.208 229.44 491.253 223.708 491.271C219.084 491.286 214.462 491.321 209.839 491.368C208.078 491.383 206.317 491.391 204.556 491.392C202.083 491.394 199.611 491.421 197.138 491.454C196.416 491.449 195.693 491.444 194.948 491.439C188.11 491.578 183.273 494.411 178.422 499.137C177.824 499.709 177.227 500.282 176.611 500.871C175.997 501.471 175.383 502.07 174.75 502.688C170.43 506.816 166.114 510.835 161.438 514.563C156.456 518.538 151.841 522.823 147.207 527.19C142.759 531.358 138.148 535.204 133.391 539.016C130.638 541.3 128.157 543.753 125.672 546.32C123.248 548.755 120.663 550.984 118.059 553.223C116.62 554.465 115.197 555.724 113.785 556.996C113.072 557.637 112.359 558.277 111.625 558.938C110.978 559.524 110.331 560.111 109.664 560.715C108 562 109 561 107 563C106.375 563.625 106.5 563.539 106 564C102.173 567.528 98.1329 569.364 92.9375 569.563C87.8862 569.268 84.9971 568.118 81 565C75.6275 558.334 76.4894 550.802 76.6094 542.66C76.6169 541.168 76.6225 539.676 76.6265 538.184C76.6417 534.276 76.681 530.368 76.7253 526.461C76.7664 522.465 76.7846 518.47 76.8047 514.475C76.8475 506.649 76.9156 498.825 77 491C76.1776 490.868 75.3552 490.735 74.5078 490.599C73.4281 490.423 72.3485 490.247 71.2361 490.065C70.1662 489.892 69.0962 489.718 67.9939 489.539C46.9279 485.744 28.1235 472.359 16 455C4.00451 436.448 0.831158 419.218 0.88648 397.383C0.886763 395.815 0.886603 394.247 0.886038 392.679C0.885752 388.446 0.89161 384.214 0.898611 379.981C0.904884 375.549 0.905452 371.116 0.906637 366.684C0.909739 358.301 0.917934 349.919 0.927984 341.536C0.939181 331.988 0.944667 322.44 0.949682 312.893C0.96012 293.262 0.977697 273.631 1.00001 254C2.17685 253.996 3.35369 253.993 4.5662 253.989C15.6605 253.952 26.7545 253.894 37.8485 253.816C43.552 253.777 49.2554 253.744 54.959 253.729C60.464 253.714 65.9686 253.679 71.4734 253.632C73.5729 253.617 75.6725 253.609 77.772 253.608C80.7145 253.606 83.6558 253.579 86.5982 253.546C87.4649 253.551 88.3316 253.556 89.2247 253.561C94.6133 253.468 97.7374 252.602 102 249C105.086 244.474 105.559 240.351 105 235C104.212 232.199 103.112 229.561 102 226.875C97.9344 216.172 97.2212 206.23 101.742 195.465C106.021 187.08 112.242 180.69 121.063 177.125C131.167 174.21 142.791 174.8 152 180Z" fill="#FEC723"/>
<path d="M284 1C308.984 0.909501 333.967 0.835904 358.951 0.792755C370.553 0.772182 382.154 0.744163 393.756 0.698246C403.876 0.658216 413.995 0.632532 424.114 0.62365C429.466 0.618462 434.817 0.606381 440.169 0.577083C445.22 0.549658 450.271 0.541613 455.322 0.547573C457.163 0.546485 459.003 0.538694 460.843 0.523182C485.702 0.32417 509.459 6.60735 528.078 23.9531C542.786 39.6179 553.137 59.1392 553.12 81.0235C553.122 82.048 553.122 82.048 553.123 83.0932C553.124 85.3686 553.119 87.644 553.114 89.9194C553.113 91.5558 553.113 93.1921 553.114 94.8284C553.114 99.2618 553.108 103.695 553.101 108.129C553.095 112.765 553.095 117.402 553.093 122.038C553.09 130.814 553.082 139.59 553.072 148.366C553.061 158.358 553.055 168.351 553.05 178.344C553.04 198.896 553.022 219.448 553 240C551.178 240.002 551.178 240.002 549.32 240.004C537.872 240.021 526.425 240.064 514.978 240.132C509.093 240.166 503.208 240.191 497.323 240.196C491.643 240.2 485.963 240.228 480.283 240.273C478.117 240.286 475.95 240.291 473.784 240.286C470.747 240.281 467.713 240.307 464.677 240.341C463.782 240.332 462.888 240.323 461.966 240.314C457.715 240.392 454.857 240.666 451.458 243.354C447.738 247.359 447.614 250.856 447.637 256.098C448.193 260.542 449.938 264.297 451.809 268.336C455.466 276.515 455.21 286.466 452.375 294.875C448.305 304.533 442.277 310.834 432.621 315.035C423.134 318.309 413.801 318.08 404.535 314.254C394.905 309.491 389.225 302.197 385.609 292.159C384.589 288.543 384.471 285.052 384.5 281.312C384.501 280.138 384.501 280.138 384.502 278.939C384.662 272.632 386.316 267.676 388.871 261.902C390.567 257.541 390.913 253.589 390 249C388.003 245.145 386.603 243.402 383 241C381.043 240.691 381.043 240.691 378.881 240.722C378.044 240.71 377.207 240.699 376.344 240.688C375.429 240.686 374.514 240.683 373.572 240.681C372.605 240.671 371.639 240.661 370.644 240.651C367.446 240.62 364.249 240.603 361.051 240.586C358.835 240.567 356.62 240.548 354.405 240.527C348.57 240.476 342.736 240.436 336.901 240.399C329.903 240.352 322.905 240.29 315.906 240.231C305.271 240.143 294.635 240.073 284 240C284 217.23 284 194.46 284 171C287.63 171.66 291.26 172.32 295 173C310.38 174.245 324.374 170.863 336.25 160.812C344.915 152.569 350.019 142.063 351.312 130.113C351.375 127.369 351.255 124.733 351 122C350.917 121.107 350.835 120.213 350.75 119.293C348.962 106.273 342.005 95.9414 332.207 87.4453C321.253 79.6588 307.031 77.7645 294 79C289.05 79.99 289.05 79.99 284 81C284 54.6 284 28.2 284 1Z" fill="#FC493E"/>
<path d="M284 254C314.36 254 344.72 254 376 254C373 265 373 265 371.812 269.25C368.815 283.599 371.43 297.539 379.379 309.789C386.795 319.903 398.346 326.909 410.594 329.641C423.865 331.623 436.346 329.112 447.5 321.625C449.025 320.448 450.527 319.242 452 318C452.645 317.466 453.289 316.933 453.953 316.383C463.266 307.92 466.891 296.488 468.316 284.293C468.797 273.949 465.23 263.69 462 254C492.03 254 522.06 254 553 254C553.081 293.56 553.081 293.56 553.098 310.191C553.11 321.656 553.123 333.12 553.151 344.584C553.171 352.935 553.184 361.286 553.188 369.637C553.191 374.055 553.197 378.471 553.211 382.888C553.225 387.056 553.229 391.224 553.226 395.392C553.227 396.912 553.231 398.431 553.238 399.951C553.309 414.497 552.092 427.648 546 441C545.729 441.6 545.459 442.199 545.18 442.817C540.401 453.189 534.151 461.062 526 469C524.983 470.031 524.983 470.031 523.945 471.082C506.146 488.003 482.84 491.487 459.397 491.341C457.473 491.34 455.55 491.34 453.627 491.342C448.452 491.343 443.278 491.325 438.103 491.304C432.678 491.285 427.253 491.284 421.827 491.28C411.575 491.271 401.323 491.246 391.07 491.216C379.389 491.182 367.708 491.166 356.027 491.151C332.018 491.12 308.009 491.067 284 491C283.999 489.934 283.997 488.867 283.996 487.769C283.979 477.719 283.936 467.67 283.868 457.62C283.834 452.453 283.809 447.287 283.804 442.12C283.8 437.134 283.772 432.148 283.727 427.162C283.714 425.26 283.709 423.358 283.714 421.456C283.719 418.79 283.693 416.127 283.659 413.462C283.672 412.283 283.672 412.283 283.686 411.08C283.602 407.087 283.165 405.211 280.672 402.031C277.301 399.468 275.22 399.041 271 399C267.793 399.949 267.793 399.949 264.625 401.438C253.813 405.56 242.034 405.88 231.293 401.184C230.536 400.793 229.78 400.402 229 400C228.004 399.491 228.004 399.491 226.988 398.973C219.986 394.704 216.107 386.693 214 379C212.961 367.49 214.517 357.095 222 348C230.919 339.634 239.732 336.695 251.848 336.77C257.174 337.159 262.223 338.611 267 341C268.953 341.174 270.914 341.267 272.875 341.312C273.924 341.35 274.974 341.387 276.055 341.426C279.03 341.224 279.03 341.224 281.15 339.478C283.696 336.068 283.573 333.02 283.546 328.927C283.556 328.104 283.567 327.28 283.577 326.432C283.606 323.772 283.608 321.113 283.609 318.453C283.623 316.809 283.639 315.165 283.657 313.521C283.709 307.431 283.728 301.34 283.75 295.25C283.832 281.637 283.915 268.025 284 254Z" fill="#33A370"/>
<path d="M96.4414 0.659422C98.3354 0.66027 100.229 0.659789 102.123 0.658094C107.213 0.657241 112.303 0.674753 117.393 0.695816C122.731 0.714701 128.07 0.716343 133.408 0.719893C143.494 0.729179 153.58 0.753746 163.666 0.783941C175.158 0.817592 186.65 0.833998 198.143 0.849027C221.762 0.880299 245.381 0.932992 269 0.999998C269.009 2.63372 269.009 2.63372 269.018 4.30044C269.075 14.5706 269.148 24.8405 269.236 35.1105C269.28 40.3902 269.32 45.6698 269.346 50.9497C269.372 56.0462 269.413 61.1424 269.463 66.2387C269.48 68.1819 269.491 70.1251 269.498 72.0684C269.507 74.7928 269.535 77.5165 269.568 80.2407C269.566 81.4427 269.565 81.4427 269.563 82.6689C269.644 87.4997 270.385 90.7886 273 95C275.683 97.2858 277.174 96.9913 280.75 96.8125C283.638 96.4545 286.04 95.5806 288.707 94.4727C293.169 92.7608 297.195 92.5371 301.938 92.625C302.73 92.6352 303.523 92.6453 304.34 92.6558C314.61 92.9286 323.218 96.132 330.57 103.594C337.027 111.791 337.916 121.916 337 132C335.106 141.978 330.325 149.182 322 155C313.078 159.947 301.971 160.646 292.105 158.316C290.502 157.789 288.903 157.248 287.309 156.691C283.309 155.494 279.037 154.799 275 156C271.183 159.751 269.444 162.074 269.314 167.629C269.327 168.679 269.327 168.679 269.341 169.75C269.325 170.895 269.325 170.895 269.309 172.065C269.281 174.52 269.286 176.974 269.293 179.43C269.28 180.953 269.266 182.475 269.249 183.998C269.201 189.624 269.197 195.249 269.188 200.875C269.126 213.456 269.064 226.038 269 239C238.31 239 207.62 239 176 239C176.744 234.537 177.532 231.42 179.063 227.312C182.918 214.97 182.733 200.715 177 189C175.249 185.757 173.304 182.874 171 180C170.448 179.312 169.897 178.623 169.328 177.914C161.276 168.933 149.119 163.567 137.172 162.824C123.872 162.5 111.881 165.23 101.313 173.75C98.9734 175.779 98.9734 175.779 98 178C97.34 178 96.68 178 96 178C95.7319 178.539 95.4638 179.078 95.1875 179.633C94.3206 181.361 93.4443 183.084 92.5625 184.805C92.0469 185.818 91.5313 186.831 91 187.875C90.4844 188.883 89.9688 189.891 89.4375 190.93C81.7662 207.315 85.8934 222.404 91 239C61.3 239 31.6 239 1.00002 239C0.798503 198.388 0.798503 198.388 0.755877 181.275C0.726292 169.493 0.691649 157.711 0.622821 145.929C0.572701 137.345 0.540659 128.762 0.529574 120.178C0.523103 115.641 0.508095 111.104 0.47137 106.566C0.135393 63.3868 0.135391 63.3868 10.375 45.875C10.7637 45.1789 11.1523 44.4828 11.5528 43.7656C14.5822 38.4528 17.8846 33.5396 22 29C22.6291 28.2794 23.2581 27.5588 23.9063 26.8164C43.3625 5.8719 68.9511 0.484502 96.4414 0.659422Z" fill="#2E9AD7"/>
<path d="M284 254C314.36 254 344.72 254 376 254C375.34 255.32 374.68 256.64 374 258C374 257.34 374 256.68 374 256C344.96 256 315.92 256 286 256C286.119 282.193 286.119 282.193 286.27 308.386C286.284 313.451 286.284 313.451 286.286 315.821C286.291 317.478 286.301 319.134 286.317 320.791C286.339 323.299 286.342 325.807 286.341 328.316C286.351 329.054 286.362 329.793 286.373 330.554C286.347 334.932 286.26 335.74 283 339C283.33 310.95 283.66 282.9 284 254Z" fill="#33A370"/>
<path d="M462 254C492.03 254 522.06 254 553 254C553 306.8 553 359.6 553 414C552.67 414 552.34 414 552 414C552 361.86 552 309.72 552 256C507.945 256.495 507.945 256.495 463 257C462.67 256.01 462.34 255.02 462 254Z" fill="#33A370"/>
<path d="M284 2C284.66 2 285.32 2 286 2C286 27.41 286 52.82 286 79C288.64 78.67 291.28 78.34 294 78C290.456 80.0444 288.398 80.267 284 81C284 54.93 284 28.86 284 2Z" fill="#FC493E"/>
<path d="M347 147C347.33 147.66 347.66 148.32 348 149C346.099 153.761 343.482 156.848 339.812 160.375C338.911 161.249 338.01 162.123 337.082 163.023C336.395 163.676 335.708 164.328 335 165C334.34 164.67 333.68 164.34 333 164C333.592 163.443 334.183 162.886 334.793 162.312C339.75 157.525 343.616 153.005 347 147Z" fill="#FC493E"/>
<path d="M350 111C353 114 353 114 353.341 116.085C353.325 116.865 353.309 117.645 353.293 118.449C353.283 119.297 353.274 120.144 353.264 121.018C353.239 121.899 353.213 122.78 353.188 123.688C353.167 125.027 353.167 125.027 353.146 126.393C353.111 128.596 353.062 130.798 353 133C352.67 133 352.34 133 352 133C351.34 125.74 350.68 118.48 350 111Z" fill="#FC493E"/>
<path d="M466 298C467.349 302.047 466.183 303.366 464.312 307.125C463.793 308.2 463.274 309.275 462.738 310.383C461 313 461 313 458.793 313.867C457.905 313.933 457.905 313.933 457 314C457.566 313.013 458.132 312.025 458.715 311.008C459.456 309.714 460.197 308.419 460.938 307.125C461.311 306.474 461.684 305.823 462.068 305.152C464.101 301.613 464.101 301.613 466 298Z" fill="#33A370"/>
</svg>
